<?xml version="1.0" encoding="utf-8"?>
<!-- Generator: Adobe Illustrator 21.0.0, SVG Export Plug-In . SVG Version: 6.00 Build 0)  -->
<svg version="1.1" id="Layer_1" xmlns="http://www.w3.org/2000/svg" xmlns:xlink="http://www.w3.org/1999/xlink" x="0px" y="0px"
	 viewBox="0 0 113 150" style="enable-background:new 0 0 113 150;" xml:space="preserve">
<style type="text/css">
	.st0{fill:#5BAF5D;}
	.st1{fill:#66C468;}
	.st2{fill:#76E378;}
	.st3{fill:#4D944F;}
	.st4{fill:#9AC4F0;}
	.st5{fill:#E0E1E2;}
	.st6{fill:#958079;}
	.st7{fill:#444B52;}
	.st8{fill:#6D6E71;}
	.st9{fill:#8D8F92;}
	.st10{fill:#855E3C;}
	.st11{fill:#A37C50;}
	.st12{fill:#805E3A;}
	.st13{fill:#6C4A30;}
	.st14{fill:#FFFFFF;}
	.st15{fill:#FCD75F;}
	.st16{fill:#EB5252;}
	.st17{fill:#B09A7D;}
	.st18{fill:#325743;}
	.st19{fill:#8C6645;}
	.st20{fill:#B58A64;}
	.st21{fill:#6E5036;}
	.st22{fill:#52351C;}
	.st23{fill:#D1D3D4;}
	.st24{fill:#6B6A6E;}
	.st25{fill:#68696B;}
	.st26{fill:#757578;}
	.st27{fill:#737476;}
	.st28{fill:#F1F2F2;}
	.st29{fill:#BABCBD;}
	.st30{fill:#38B077;}
	.st31{fill:#40A7FF;}
	.st32{fill:#4081FF;}
	.st33{fill:#4B5582;}
	.st34{fill:#3ECFCF;}
	.st35{fill:#89E2E2;}
	.st36{fill:#FF84C1;}
	.st37{fill:#FFB3D1;}
	.st38{fill:#FF99C1;}
	.st39{fill:#FFC642;}
	.st40{fill:#14E398;}
	.st41{fill:#FF91F6;}
	.st42{fill:#6BFFC9;}
	.st43{fill:#FF6BF3;}
	.st44{fill:#FFD67D;}
	.st45{fill:#425B80;}
	.st46{fill:#F2AC32;}
	.st47{fill:#F268EB;}
	.st48{fill:#00A7E8;}
	.st49{fill:#C7A983;}
	.st50{fill:#AD895D;}
	.st51{fill:#5E5755;}
	.st52{fill:#F24129;}
	.st53{fill:#C73522;}
	.st54{fill:#423E3A;}
	.st55{fill:#CC2121;}
	.st56{fill:#E0E0E0;}
	.st57{fill:#A31A1A;}
	.st58{fill:#2E292A;}
	.st59{fill:#EBEBEB;}
	.st60{fill:#58595B;}
	.st61{fill:#D2D3D4;}
	.st62{fill:#AFB1B5;}
	.st63{fill:#4CE637;}
	.st64{fill:#F03E3E;}
	.st65{fill:#DADADB;}
	.st66{opacity:0.3;}
	.st67{fill:#DFE0E1;}
	.st68{fill:#2CD4F5;}
	.st69{fill:#1BCDF0;}
	.st70{fill:none;stroke:#2CD4F5;stroke-width:4;stroke-linecap:round;stroke-miterlimit:10;}
	.st71{fill:#373F61;}
	.st72{opacity:0.2;}
	.st73{fill:#FF82A0;}
	.st74{fill:#E6E6E6;}
	.st75{fill:#FF5C83;}
	.st76{fill:#D4335B;}
	.st77{fill:#A0A2A5;}
	.st78{fill:#436C8C;}
	.st79{fill:#EDEDED;}
	.st80{fill:#2BAF73;}
	.st81{fill:#50DE9D;}
	.st82{fill:#D6D6D6;}
	.st83{fill:#1B8555;}
	.st84{fill:#3B434F;}
	.st85{fill:#73DEEF;}
	.st86{fill:#DCA0FF;}
	.st87{fill:#D78DFF;}
	.st88{fill:#DC92FF;}
	.st89{fill:#73D0E4;}
	.st90{fill:#726097;}
	.st91{fill:#C8CACC;}
	.st92{fill:#9D9EA1;}
	.st93{fill:#474747;}
	.st94{fill:#DBDBDB;}
	.st95{fill:#282829;}
	.st96{fill:#F7FFE0;}
	.st97{fill:#C862D4;}
	.st98{fill:#C8CFB5;}
	.st99{fill:#793B80;}
	.st100{fill:#46385E;}
	.st101{fill:#FFE9BC;}
	.st102{fill:#4C4450;}
	.st103{fill:#363038;}
	.st104{fill:#1E232B;}
	.st105{fill:#FFBFC2;}
	.st106{fill:#AB0F19;}
	.st107{fill:#99D96F;}
	.st108{fill:#80B55C;}
	.st109{fill:#E3E3E3;}
	.st110{fill:#89C263;}
	.st111{fill:#68944B;}
	.st112{fill:#4D594D;}
	.st113{fill:#E0AFA9;}
	.st114{fill:#FFC7C0;}
	.st115{fill:#78584B;}
	.st116{fill:#FD244B;}
	.st117{fill:#D4D4D4;}
	.st118{fill:#8C6758;}
	.st119{fill:#453F3D;}
	.st120{fill:#523D34;}
	.st121{fill:#519E6C;}
	.st122{fill:#E83651;}
	.st123{fill:#ACBF6B;}
	.st124{fill:#3C7550;}
	.st125{fill:#91A352;}
	.st126{fill:#AD293D;}
	.st127{fill:#E8E8E8;}
	.st128{fill:#4D393C;}
	.st129{fill:#ABABAB;}
	.st130{fill:#E16512;}
	.st131{fill:#808080;}
	.st132{fill:#A09AF0;}
	.st133{fill:#49494A;}
	.st134{fill:#414142;}
	.st135{fill:#6B63CF;}
	.st136{fill:#7E77DB;}
	.st137{fill:#3B3B3B;}
	.st138{fill:#2A2A2B;}
	.st139{fill:#AEE826;}
	.st140{fill:#C9CBCC;}
	.st141{fill:#CCCCCC;}
	.st142{fill:#EF3934;}
	.st143{fill:#9EA0A1;}
	.st144{fill:#BF2E2A;}
	.st145{fill:#43454F;}
	.st146{fill:#48AB58;}
	.st147{fill:#2BDFFF;}
	.st148{fill:#51C264;}
	.st149{fill:#6FDE81;}
	.st150{fill:#D6C36B;}
	.st151{fill:#CE2D42;}
	.st152{fill:#B39F49;}
	.st153{fill:#962130;}
	.st154{fill:#00A000;}
	.st155{fill:#242424;}
	.st156{fill:#6F54BF;}
	.st157{fill:#45C1FF;}
	.st158{fill:#FFE492;}
	.st159{fill:#FFC9ED;}
	.st160{fill:#C1FF8F;}
	.st161{fill:#664DB0;}
	.st162{fill:#9E7DFF;}
	.st163{fill:#9070EB;}
</style>
<g>
	<path class="st150" d="M75.8,100.13c0.24-0.03,0.49-0.06,0.73-0.07c0.46-0.04,0.93-0.06,1.4-0.06c0.31,0,0.62,0.01,0.93,0.02
		c0.3,0.01,0.61,0.04,0.91,0.07C88.88,100.98,96,108.66,96,118c0,6.27-3.2,11.8-8.07,15.02v0.01h10.52c0.18,0,0.36,0.01,0.53,0.03
		V133c6.68-4.81,11.02-12.65,11.02-21.5C110,96.86,98.12,85,83.47,85c-8.41,0-15.91,3.91-20.77,10l-0.67,0.25
		c0.26,0.7,0.4,1.46,0.4,2.25c0,1.68-0.63,3.2-1.67,4.35l0.17,0.15v10.31C63.08,105.82,68.83,100.98,75.8,100.13z"/>
</g>
<g>
	<path class="st151" d="M79.77,100.09c-0.3-0.03-0.61-0.05-0.91-0.07c-0.31-0.01-0.62-0.02-0.93-0.02c-0.47,0-0.94,0.02-1.4,0.06
		c-0.25,0.02-0.49,0.04-0.73,0.07c-6.97,0.85-12.72,5.69-14.87,12.18V133v0.03h27v-0.01C92.8,129.8,96,124.27,96,118
		C96,108.66,88.88,100.98,79.77,100.09z"/>
</g>
<g>
	<g>
		<path class="st152" d="M90.15,133c6.68-4.81,11.02-12.65,11.02-21.5c0-13.138-9.569-24.03-22.12-26.129
			C80.488,85.13,81.964,85,83.47,85C98.12,85,110,96.86,110,111.5c0,8.85-4.34,16.69-11.02,21.5v0.06
			c-0.17-0.02-0.35-0.03-0.53-0.03h-8.3V133z"/>
	</g>
</g>
<g>
	<path class="st153" d="M78.32,133.03c2.866-3.189,4.61-7.407,4.61-12.03c0-8.99-6.603-16.424-15.221-17.763
		c2.35-1.643,5.107-2.743,8.092-3.107c0.24-0.03,0.48-0.05,0.73-0.07c0.46-0.04,0.93-0.06,1.4-0.06c0.31,0,0.62,0.01,0.93,0.02
		c0.3,0.02,0.61,0.04,0.91,0.07C88.88,100.98,96,108.66,96,118c0,6.27-3.2,11.8-8.07,15.02v0.01H78.32z"/>
</g>
<g>
	<path class="st151" d="M75.8,100.13c0.24-0.03,0.48-0.05,0.73-0.07C76.29,100.07,76.04,100.1,75.8,100.13z"/>
</g>
<g>
	<path class="st151" d="M77.93,100c-0.47,0-0.94,0.02-1.4,0.06C76.99,100.02,77.46,100,77.93,100z"/>
</g>
<g>
	<path class="st150" d="M99.64,133.12c3.6,0.54,6.36,3.64,6.36,7.4c0,2.06-0.84,3.94-2.19,5.29c-1.35,1.35-3.23,2.19-5.29,2.19
		H13.48C9.35,148,6,144.65,6,140.52c0-2.07,0.84-3.94,2.19-5.3c1.23-1.23,2.91-2.04,4.76-2.16c0.17-0.02,0.35-0.03,0.53-0.03H24h27
		h37h10.52C98.9,133.03,99.28,133.06,99.64,133.12z M56,143l5-2.48L56,138l-5,2.5L56,143z M41,140.5c0-1.38-1.12-2.5-2.5-2.5
		s-2.5,1.12-2.5,2.5s1.12,2.5,2.5,2.5S41,141.88,41,140.5z M20,143l5-2.48L20,138l-5,2.5L20,143z"/>
</g>
<g>
	<path class="st150" d="M62.03,95.08c0.3,0.74,0.47,1.56,0.47,2.42c0,1.68-0.63,3.2-1.67,4.35C59.64,103.17,57.92,104,56,104
		s-3.64-0.83-4.83-2.15c-1.04-1.15-1.67-2.67-1.67-4.35c0-0.79,0.14-1.55,0.4-2.25C50.82,92.77,53.2,91,56,91
		C58.73,91,61.07,92.69,62.03,95.08z"/>
</g>
<g>
	<path class="st150" d="M61,112v21H51v-20.69V102l0.17-0.15c1.19,1.32,2.91,2.15,4.83,2.15s3.64-0.83,4.83-2.15L61,102V112z"/>
</g>
<g>
	<polygon class="st154" points="61,140.52 56,143 51,140.5 56,138 	"/>
</g>
<g>
	<path class="st150" d="M36.13,100.13c-0.24-0.03-0.49-0.06-0.73-0.07c-0.46-0.04-0.93-0.06-1.4-0.06c-0.31,0-0.62,0.01-0.93,0.02
		c-0.3,0.01-0.61,0.04-0.91,0.07c-9.11,0.89-16.23,8.57-16.23,17.91c0,6.27,3.2,11.8,8.07,15.02v0.01H13.48
		c-0.18,0-0.36,0.01-0.53,0.03V133c-6.68-4.81-11.02-12.65-11.02-21.5C1.93,96.86,13.81,85,28.46,85c8.41,0,15.91,3.91,20.77,10
		l0.67,0.25c-0.26,0.7-0.4,1.46-0.4,2.25c0,1.68,0.63,3.2,1.67,4.35L51,102v10.31C48.85,105.82,43.1,100.98,36.13,100.13z"/>
</g>
<g>
	<g>
		<path class="st152" d="M21.78,133c-6.68-4.81-11.02-12.65-11.02-21.5c0-13.138,9.569-24.03,22.12-26.129
			C31.442,85.13,29.966,85,28.46,85C13.81,85,1.93,96.86,1.93,111.5c0,8.85,4.34,16.69,11.02,21.5v0.06
			c0.17-0.02,0.35-0.03,0.53-0.03h8.3V133z"/>
	</g>
</g>
<g>
	<path class="st151" d="M32.16,100.09c0.3-0.03,0.61-0.05,0.91-0.07c0.31-0.01,0.62-0.02,0.93-0.02c0.47,0,0.94,0.02,1.4,0.06
		c0.25,0.02,0.49,0.04,0.73,0.07c6.97,0.85,12.72,5.69,14.87,12.18V133v0.03H24v-0.01c-4.87-3.22-8.07-8.75-8.07-15.02
		C15.93,108.66,23.05,100.98,32.16,100.09z"/>
</g>
<g>
	<path class="st14" d="M38.5,138c1.38,0,2.5,1.12,2.5,2.5s-1.12,2.5-2.5,2.5s-2.5-1.12-2.5-2.5S37.12,138,38.5,138z M40,140.5
		c0-0.83-0.67-1.5-1.5-1.5s-1.5,0.67-1.5,1.5s0.67,1.5,1.5,1.5S40,141.33,40,140.5z"/>
</g>
<g>
	<circle class="st151" cx="38.5" cy="140.5" r="1.5"/>
</g>
<g>
	<path class="st151" d="M36.13,100.13c-0.24-0.03-0.48-0.05-0.73-0.07C35.64,100.07,35.89,100.1,36.13,100.13z"/>
</g>
<g>
	<path class="st153" d="M33.61,133.03C30.744,129.841,29,125.623,29,121c0-8.99,6.603-16.424,15.221-17.763
		c-2.35-1.643-5.107-2.743-8.092-3.107c-0.24-0.03-0.48-0.05-0.73-0.07c-0.46-0.04-0.93-0.06-1.4-0.06c-0.31,0-0.62,0.01-0.93,0.02
		c-0.3,0.02-0.61,0.04-0.91,0.07c-9.11,0.89-16.23,8.57-16.23,17.91c0,6.27,3.2,11.8,8.07,15.02v0.01H33.61z"/>
</g>
<g>
	<path class="st151" d="M34,100c0.47,0,0.94,0.02,1.4,0.06C34.94,100.02,34.47,100,34,100z"/>
</g>
<g>
	<path class="st152" d="M57.67,101.85C56.63,100.7,56,99.18,56,97.5c0-0.79,0.14-1.55,0.4-2.25c0.529-1.427,1.551-2.603,2.849-3.358
		C58.291,91.334,57.187,91,56,91c-2.8,0-5.18,1.77-6.1,4.25c-0.26,0.7-0.4,1.46-0.4,2.25c0,1.68,0.63,3.2,1.67,4.35
		c1.19,1.32,2.91,2.15,4.83,2.15c1.186,0,2.294-0.318,3.25-0.871C58.659,102.786,58.125,102.355,57.67,101.85z"/>
</g>
<g>
	<g>
		<path class="st152" d="M56,104c-1.92,0-3.64-0.83-4.83-2.15L51,102v10.31V133h5v-20.69V104z"/>
	</g>
</g>
<g>
	<polygon class="st154" points="25,140.52 20,143 15,140.5 20,138 	"/>
</g>
<g>
	<g>
		<path class="st152" d="M39.394,142.828C39.115,142.935,38.816,143,38.5,143c-1.38,0-2.5-1.12-2.5-2.5s1.12-2.5,2.5-2.5
			c0.32,0,0.624,0.066,0.906,0.176c0.371-1.125,0.995-2.134,1.811-2.956c1.23-1.23,2.91-2.04,4.76-2.16
			c0.17-0.02,0.35-0.03,0.53-0.03H24H13.48c-0.18,0-0.36,0.01-0.53,0.03c-1.85,0.12-3.53,0.93-4.76,2.16
			c-1.35,1.36-2.19,3.23-2.19,5.3c0,4.13,3.35,7.48,7.48,7.48h33.026C43.182,148,40.367,145.828,39.394,142.828z M20,143l-5-2.5
			l5-2.5l5,2.52L20,143z"/>
	</g>
</g>
<g>
	<circle class="st151" cx="73.5" cy="140.5" r="1.5"/>
</g>
<g>
	<polygon class="st154" points="87,140.52 92,143 97,140.5 92,138 	"/>
</g>
<g>
	<path class="st155" d="M103.06,132.205c5.649-5.344,8.94-12.84,8.94-20.705C112,95.785,99.201,83,83.47,83
		c-8.008,0-15.506,3.298-20.901,9.106C61.404,90.68,59.8,89.692,58,89.259V85.29l3.86,0.55c0.6,0.08,1.14-0.38,1.14-0.99v-3.7
		c0-0.61-0.54-1.07-1.14-0.99l-3.53,0.51l0.51-3.53c0.08-0.6-0.38-1.14-0.99-1.14h-3.7c-0.61,0-1.07,0.54-0.99,1.14l0.51,3.53
		l-3.53-0.51c-0.6-0.08-1.14,0.38-1.14,0.99v3.7c0,0.61,0.54,1.07,1.14,0.99L54,85.29v3.977c-1.805,0.443-3.42,1.456-4.59,2.89
		C44.011,86.317,36.491,83,28.46,83C12.728,83-0.07,95.785-0.07,111.5c0,7.874,3.297,15.376,8.958,20.721
		c-0.769,0.425-1.482,0.956-2.116,1.589C4.984,135.61,4,137.993,4,140.52c0,5.228,4.253,9.48,9.48,9.48h85.04
		c2.533,0,4.914-0.986,6.704-2.776c1.79-1.789,2.775-4.171,2.775-6.704C108,136.998,106.015,133.837,103.06,132.205z M83.47,87
		C96.996,87,108,97.99,108,111.5c0,7.662-3.634,14.915-9.736,19.53h-5.171c3.083-3.585,4.837-8.182,4.837-13.03
		c0-10.308-7.72-18.862-17.959-19.9c-0.284-0.028-0.576-0.049-0.861-0.067l-0.189-0.012c-0.862-0.028-1.787-0.022-2.479,0.041
		c-0.294,0.013-0.599,0.047-0.875,0.082c-4.904,0.576-9.359,2.992-12.566,6.579v-2.413c0.969-1.406,1.5-3.075,1.5-4.81
		c0-0.47-0.046-0.932-0.122-1.389C69.067,90.32,76.013,87,83.47,87z M24.724,131.03C20.508,128.021,18,123.189,18,118
		c0-8.247,6.174-15.091,14.361-15.92c0.239-0.024,0.486-0.041,0.728-0.058l0.045-0.004c0.698-0.021,1.349-0.03,2.177,0.039
		c0.187,0.009,0.382,0.033,0.586,0.059c5.919,0.695,11.031,4.732,13.104,10.308v18.606H24.724z M59,131h-6v-18.69v-6.87
		c0.951,0.36,1.964,0.561,3,0.561c1.034,0,2.05-0.189,3-0.549V131z M63,112.249c2.115-5.484,7.177-9.445,13.05-10.134
		c0.188-0.023,0.383-0.048,0.654-0.062c0.685-0.06,1.492-0.049,2.02-0.037l0.115,0.008c0.242,0.017,0.49,0.033,0.73,0.058
		c8.187,0.829,14.36,7.674,14.36,15.92c0,5.189-2.508,10.021-6.724,13.03H63V112.249z M51.775,95.945C52.429,94.184,54.127,93,56,93
		c1.847,0,3.485,1.109,4.177,2.831C60.392,96.36,60.5,96.923,60.5,97.5c0,1.118-0.409,2.187-1.153,3.008l0,0.001
		c-0.001,0.001-0.002,0.001-0.002,0.002C58.478,101.471,57.291,102,56,102s-2.479-0.529-3.345-1.489l-0.002-0.003
		c-0.744-0.821-1.153-1.89-1.153-3.008C51.5,96.96,51.593,96.438,51.775,95.945z M3.93,111.5C3.93,97.99,14.934,87,28.46,87
		c7.485,0,14.458,3.345,19.148,9.178C47.54,96.612,47.5,97.053,47.5,97.5c0,1.734,0.531,3.403,1.5,4.81v2.491
		c-3.211-3.63-7.692-6.076-12.62-6.655c-0.293-0.037-0.598-0.071-0.806-0.078c-0.828-0.072-1.584-0.082-2.641-0.043l-0.115,0.008
		c-0.285,0.02-0.576,0.039-0.859,0.067C21.721,99.138,14,107.692,14,118c0,4.848,1.754,9.445,4.837,13.03h-5.17
		C7.563,126.415,3.93,119.162,3.93,111.5z M102.396,144.396C101.361,145.43,99.985,146,98.52,146H13.48
		c-3.021,0-5.48-2.459-5.48-5.48c0-1.464,0.571-2.845,1.604-3.886c0.934-0.933,2.167-1.493,3.574-1.587
		c0.097-0.012,0.199-0.017,0.302-0.017h85.04c0.273,0,0.546,0.021,0.787,0.062c0.012,0.002,0.023,0.004,0.035,0.005
		c2.655,0.398,4.657,2.729,4.657,5.422C104,141.984,103.431,143.361,102.396,144.396z"/>
	<path class="st155" d="M61.45,139.627l-5-2.52c-0.283-0.143-0.616-0.144-0.897-0.002l-5,2.5C50.214,139.775,50,140.121,50,140.5
		s0.214,0.725,0.553,0.895l5,2.5C55.693,143.965,55.847,144,56,144c0.152,0,0.305-0.035,0.444-0.104l5-2.48
		c0.34-0.168,0.555-0.514,0.556-0.893S61.788,139.797,61.45,139.627z M56.002,141.883l-2.766-1.383l2.762-1.381l2.766,1.394
		L56.002,141.883z"/>
	<path class="st155" d="M38.5,137c-1.93,0-3.5,1.57-3.5,3.5s1.57,3.5,3.5,3.5s3.5-1.57,3.5-3.5S40.43,137,38.5,137z M38.5,142
		c-0.827,0-1.5-0.673-1.5-1.5s0.673-1.5,1.5-1.5s1.5,0.673,1.5,1.5S39.327,142,38.5,142z"/>
	<path class="st155" d="M25.45,139.627l-5-2.52c-0.282-0.143-0.615-0.144-0.897-0.002l-5,2.5C14.214,139.775,14,140.121,14,140.5
		s0.214,0.725,0.553,0.895l5,2.5C19.693,143.965,19.847,144,20,144c0.152,0,0.305-0.035,0.444-0.104l5-2.48
		c0.34-0.168,0.555-0.514,0.556-0.893S25.788,139.797,25.45,139.627z M20.002,141.883l-2.766-1.383l2.762-1.381l2.766,1.394
		L20.002,141.883z"/>
	<path class="st155" d="M73.5,137c-1.93,0-3.5,1.57-3.5,3.5s1.57,3.5,3.5,3.5s3.5-1.57,3.5-3.5S75.43,137,73.5,137z M73.5,142
		c-0.827,0-1.5-0.673-1.5-1.5s0.673-1.5,1.5-1.5s1.5,0.673,1.5,1.5S74.327,142,73.5,142z"/>
	<path class="st155" d="M97.447,139.605l-5-2.5c-0.282-0.142-0.615-0.141-0.897,0.002l-5,2.52c-0.338,0.17-0.551,0.517-0.55,0.896
		s0.216,0.725,0.556,0.893l5,2.48C91.695,143.965,91.848,144,92,144c0.153,0,0.307-0.035,0.447-0.105l5-2.5
		c0.339-0.17,0.553-0.516,0.553-0.895S97.786,139.775,97.447,139.605z M91.998,141.883l-2.762-1.37l2.766-1.394l2.762,1.381
		L91.998,141.883z"/>
</g>
<g>
	
		<ellipse transform="matrix(0.5646 -0.8253 0.8253 0.5646 -54.4638 88.891)" class="st14" cx="57.026" cy="96.07" rx="0.965" ry="1.555"/>
</g>
</svg>
