<?xml version="1.0" encoding="utf-8"?>
<!-- Generator: Adobe Illustrator 21.0.0, SVG Export Plug-In . SVG Version: 6.00 Build 0)  -->
<svg version="1.1" id="Layer_1" xmlns="http://www.w3.org/2000/svg" xmlns:xlink="http://www.w3.org/1999/xlink" x="0px" y="0px"
	 viewBox="0 0 129 150" style="enable-background:new 0 0 129 150;" xml:space="preserve">
<style type="text/css">
	.st0{fill:#FFFFFF;}
	.st1{fill:#6D6E71;}
	.st2{fill:#5A5B5E;}
	.st3{fill:#AEB0B1;}
	.st4{fill:#FFFFFF;stroke:#58595B;stroke-width:4;stroke-linecap:round;stroke-linejoin:round;stroke-miterlimit:10;}
	.st5{fill:#58595B;}
	.st6{fill:#A8724B;}
	.st7{fill:#916341;}
	.st8{fill:#754921;}
	.st9{fill:#FF6B6B;}
	.st10{fill:#FFD57E;}
	.st11{fill:#D9FF93;}
	.st12{fill:#E8E8E8;}
	.st13{fill:#85808A;}
	.st14{fill:#1787FF;}
	.st15{fill:#4DE69F;}
	.st16{fill:#C92A2A;}
	.st17{fill:#00386E;}
	.st18{fill:#231F20;}
	.st19{fill:#CCCCCC;}
	.st20{fill:#A12222;}
	.st21{fill:#002D58;}
	.st22{fill:#1C191A;}
	.st23{fill:#851616;}
	.st24{fill:#B01E1E;}
	.st25{fill:#E32626;}
	.st26{fill:#991919;}
	.st27{fill:#591300;}
	.st28{fill:#FF880F;}
	.st29{fill:#D16F0C;}
	.st30{fill:#F3D9D9;}
	.st31{fill:#ECC6C6;}
	.st32{fill:#E6B6B6;}
	.st33{fill:#F1D2D2;}
	.st34{fill:#E5B0B0;}
	.st35{fill:#D3AEAA;}
	.st36{fill:#F0CFCF;}
	.st37{fill:#F2D4D4;}
	.st38{fill:#B3F294;}
	.st39{fill:#99C4FF;}
	.st40{fill:#D2FFBA;}
	.st41{fill:#BDD9FF;}
	.st42{fill:#7C7E82;}
</style>
<g>
	<g>
		<path class="st38" d="M127,103v0.91c0,14.49-11.38,26.74-25.86,27.08c-0.58,0.02-1.16,0.01-1.73-0.01
			c1.17-2.55,2.08-5.24,2.68-8.05c9.14-0.78,16.38-8.19,16.88-17.4c0.03-0.56-0.44-1.03-1-1.03H102l-0.27,0.07
			c-0.33-1.28-0.73-2.54-1.19-3.77c-0.46-1.25-0.98-2.47-1.56-3.65c-0.02-0.04-0.04-0.07-0.06-0.11L99,97h22
			C124.31,97,127,99.69,127,103z"/>
	</g>
	<g>
		<path class="st38" d="M79,114l-5,3v8h10v-8L79,114z M102.09,122.93c-0.6,2.81-1.51,5.5-2.68,8.05c-0.14,0.3-0.28,0.6-0.43,0.9
			c-3.25,6.64-8.31,12.22-14.54,16.12H42.56c-5.88-3.68-10.73-8.87-13.98-15.03c-0.2-0.36-0.38-0.72-0.56-1.09
			c-2.57-5.24-4.02-11.13-4.02-17.36c0-0.1,0-0.2,0.01-0.3c0.03-4.65,0.86-9.1,2.38-13.22H79h21l0.54-0.2
			c0.46,1.23,0.86,2.49,1.19,3.77c0.83,3.18,1.27,6.51,1.27,9.95C103,117.41,102.69,120.22,102.09,122.93z"/>
	</g>
	<g>
		<path class="st38" d="M100.54,100.8L100,101H79H26.39c0.47-1.32,1.02-2.6,1.63-3.85c6.43-13.11,19.9-22.13,35.48-22.13
			c15.54,0,28.97,8.97,35.42,22.02c0.02,0.04,0.04,0.07,0.06,0.11C99.56,98.33,100.08,99.55,100.54,100.8z"/>
	</g>
	<g>
		<polygon class="st39" points="84,117 84,125 74,125 74,117 79,114 		"/>
	</g>
	<g>
		<path class="st38" d="M63,63c3.56,0,6.16,3.34,5.3,6.79L67,75h-8l-1.3-5.21C56.84,66.34,59.44,63,63,63z"/>
	</g>
	<g>
		<path class="st40" d="M28.02,131.88c0.18,0.37,0.36,0.73,0.56,1.09L28.52,133C14.07,128.96,2,113.12,2,98h7
			c1.43,2.36,5.94,9.83,10,13c1.73,1.35,3.43,2.4,5,3.22h0.01c-0.01,0.1-0.01,0.2-0.01,0.3C24,120.75,25.45,126.64,28.02,131.88z"/>
	</g>
	<g>
		<g>
			<path class="st40" d="M100.54,100.8L100,101h0.609C100.585,100.934,100.565,100.866,100.54,100.8z"/>
		</g>
		<g>
			<path class="st40" d="M50.58,132.97c-0.2-0.36-0.38-0.72-0.56-1.09c-2.57-5.24-4.02-11.13-4.02-17.36c0-0.1,0-0.2,0.01-0.3
				c0.03-4.65,0.86-9.1,2.38-13.22h-22c-1.52,4.12-2.35,8.57-2.38,13.22c-0.01,0.1-0.01,0.2-0.01,0.3c0,6.23,1.45,12.12,4.02,17.36
				c0.18,0.37,0.36,0.73,0.56,1.09c3.25,6.16,8.1,11.35,13.98,15.03h22C58.68,144.32,53.83,139.13,50.58,132.97z"/>
		</g>
	</g>
	<g>
		<path class="st40" d="M74.502,76.579C71.01,75.568,67.32,75.02,63.5,75.02c-15.58,0-29.05,9.02-35.48,22.13
			c-0.61,1.25-1.16,2.53-1.63,3.85h22c0.47-1.32,1.02-2.6,1.63-3.85C54.874,87.252,63.744,79.693,74.502,76.579z"/>
	</g>
	<g>
		<path class="st40" d="M65.5,63.604C64.757,63.221,63.911,63,63,63c-3.56,0-6.16,3.34-5.3,6.79L59,75h5l-1.3-5.21
			C62.06,67.222,63.338,64.718,65.5,63.604z"/>
	</g>
	<g>
		<polygon class="st41" points="79,114 74,117 74,125 79,125 		"/>
	</g>
	<g>
		<path class="st42" d="M121,95h-20.908C93.794,83.187,82.47,75.294,69.45,73.442l0.79-3.168c0.561-2.249,0.065-4.584-1.359-6.408
			C67.457,62.045,65.314,61,63,61s-4.457,1.045-5.881,2.866c-1.425,1.824-1.92,4.159-1.359,6.408l0.832,3.335
			c-13.088,2.171-24.369,10.429-30.37,22.665c-0.678,1.39-1.239,2.716-1.708,4.033c-1.244,3.372-2.024,6.893-2.341,10.506
			c-0.663-0.44-1.314-0.9-1.943-1.39c-2.484-1.94-5.679-6.117-9.52-12.46C10.349,96.365,9.699,96,9,96H2c-1.104,0-2,0.896-2,2
			c0,15.799,12.169,32.091,27.27,36.708c3.392,6.092,8.285,11.267,14.229,14.987L41.985,150h43.029l0.487-0.305
			c6.516-4.08,11.747-9.857,15.148-16.697c0.18-0.001,0.36-0.002,0.536-0.009C116.523,132.63,129,119.585,129,103.91V103
			C129,98.589,125.411,95,121,95z M104.217,106.5h12.661c-0.819,6.766-5.805,12.326-12.322,13.984
			c0.286-1.961,0.444-3.956,0.444-5.965C105,111.817,104.734,109.129,104.217,106.5z M60.271,66.329C60.932,65.484,61.926,65,63,65
			s2.068,0.484,2.729,1.329c0.661,0.847,0.892,1.932,0.631,2.978L65.438,73h-4.875l-0.922-3.694
			C59.38,68.261,59.61,67.176,60.271,66.329z M63.5,77.021c14.368,0,27.253,8.011,33.64,20.932l0.046,0.079
			c0.155,0.316,0.297,0.645,0.444,0.969H29.373c0.146-0.322,0.281-0.64,0.442-0.969C36.172,85.071,49.079,77.021,63.5,77.021z
			 M79,116.332l3,1.801V123h-6v-4.867L79,116.332z M4.075,100h3.801c1.897,3.099,6.012,9.546,9.895,12.577
			c1.348,1.051,2.776,1.998,4.254,2.837c0.102,4.868,1.035,9.582,2.779,14.07C13.777,124.342,4.972,112.019,4.075,100z
			 M97.185,131.001c-2.993,6.113-7.594,11.289-13.326,14.999H43.142c-5.393-3.489-9.808-8.307-12.793-13.964l-0.021-0.04
			c-0.183-0.327-0.346-0.656-0.512-0.997C27.283,125.836,26,120.291,26,114.52l0.01-0.287c0.025-3.861,0.633-7.628,1.807-11.232H77
			v9.868l-4.029,2.418C72.368,115.646,72,116.298,72,117v8c0,1.104,0.896,2,2,2h10c1.104,0,2-0.896,2-2v-8
			c0-0.702-0.368-1.354-0.971-1.715L81,112.868V103h18.184c0.225,0.692,0.433,1.385,0.611,2.075c0.8,3.065,1.205,6.243,1.205,9.444
			c0,2.71-0.29,5.395-0.866,7.993c-0.554,2.596-1.409,5.165-2.573,7.7C97.439,130.472,97.319,130.729,97.185,131.001z M125,103.91
			c0,13.06-10.008,24.001-22.59,25.009c0.512-1.383,0.946-2.783,1.3-4.193c9.421-1.494,16.733-9.448,17.256-19.088
			c0.044-0.805-0.252-1.605-0.812-2.196c-0.567-0.599-1.364-0.941-2.186-0.941h-14.753c-0.243-0.802-0.504-1.602-0.799-2.391
			c-0.137-0.373-0.293-0.74-0.441-1.109H121c2.206,0,4,1.794,4,4V103.91z"/>
		<path class="st42" d="M36.996,126.879C35.008,122.825,34,118.462,34,113.91c0-1.104-0.896-2-2-2s-2,0.896-2,2
			c0,5.168,1.146,10.124,3.406,14.734c1.603,3.248,3.698,6.195,6.229,8.761c0.392,0.396,0.907,0.595,1.424,0.595
			c0.508,0,1.016-0.192,1.405-0.576c0.786-0.776,0.794-2.043,0.019-2.829C40.253,132.336,38.406,129.738,36.996,126.879z"/>
	</g>
</g>
</svg>
