<?xml version="1.0" encoding="utf-8"?>
<!-- Generator: Adobe Illustrator 21.0.0, SVG Export Plug-In . SVG Version: 6.00 Build 0)  -->
<svg version="1.1" id="Layer_1" xmlns="http://www.w3.org/2000/svg" xmlns:xlink="http://www.w3.org/1999/xlink" x="0px" y="0px"
	 viewBox="0 0 94 150" style="enable-background:new 0 0 94 150;" xml:space="preserve">
<style type="text/css">
	.st0{fill:#5BAF5D;}
	.st1{fill:#66C468;}
	.st2{fill:#76E378;}
	.st3{fill:#4D944F;}
	.st4{fill:#9AC4F0;}
	.st5{fill:#E0E1E2;}
	.st6{fill:#958079;}
	.st7{fill:#444B52;}
	.st8{fill:#6D6E71;}
	.st9{fill:#8D8F92;}
	.st10{fill:#855E3C;}
	.st11{fill:#A37C50;}
	.st12{fill:#805E3A;}
	.st13{fill:#6C4A30;}
	.st14{fill:#FFFFFF;}
	.st15{fill:#FCD75F;}
	.st16{fill:#EB5252;}
	.st17{fill:#B09A7D;}
	.st18{fill:#325743;}
	.st19{fill:#8C6645;}
	.st20{fill:#B58A64;}
	.st21{fill:#6E5036;}
	.st22{fill:#52351C;}
	.st23{fill:#D1D3D4;}
	.st24{fill:#6B6A6E;}
	.st25{fill:#68696B;}
	.st26{fill:#757578;}
	.st27{fill:#737476;}
	.st28{fill:#F1F2F2;}
	.st29{fill:#BABCBD;}
	.st30{fill:#38B077;}
	.st31{fill:#40A7FF;}
	.st32{fill:#4081FF;}
	.st33{fill:#4B5582;}
	.st34{fill:#3ECFCF;}
	.st35{fill:#89E2E2;}
	.st36{fill:#FF84C1;}
	.st37{fill:#FFB3D1;}
	.st38{fill:#FF99C1;}
	.st39{fill:#FFC642;}
	.st40{fill:#14E398;}
	.st41{fill:#FF91F6;}
	.st42{fill:#6BFFC9;}
	.st43{fill:#FF6BF3;}
	.st44{fill:#FFD67D;}
	.st45{fill:#425B80;}
	.st46{fill:#F2AC32;}
	.st47{fill:#F268EB;}
	.st48{fill:#00A7E8;}
	.st49{fill:#C7A983;}
	.st50{fill:#AD895D;}
	.st51{fill:#5E5755;}
	.st52{fill:#F24129;}
	.st53{fill:#C73522;}
	.st54{fill:#423E3A;}
	.st55{fill:#CC2121;}
	.st56{fill:#E0E0E0;}
	.st57{fill:#A31A1A;}
	.st58{fill:#2E292A;}
	.st59{fill:#EBEBEB;}
	.st60{fill:#58595B;}
	.st61{fill:#D2D3D4;}
	.st62{fill:#AFB1B5;}
	.st63{fill:#4CE637;}
	.st64{fill:#F03E3E;}
	.st65{fill:#DADADB;}
	.st66{opacity:0.3;}
	.st67{fill:#DFE0E1;}
	.st68{fill:#2CD4F5;}
	.st69{fill:#1BCDF0;}
	.st70{fill:none;stroke:#2CD4F5;stroke-width:4;stroke-linecap:round;stroke-miterlimit:10;}
	.st71{fill:#373F61;}
	.st72{opacity:0.2;}
	.st73{fill:#FF82A0;}
	.st74{fill:#E6E6E6;}
	.st75{fill:#FF5C83;}
	.st76{fill:#D4335B;}
	.st77{fill:#A0A2A5;}
	.st78{fill:#436C8C;}
	.st79{fill:#EDEDED;}
	.st80{fill:#2BAF73;}
	.st81{fill:#50DE9D;}
	.st82{fill:#D6D6D6;}
	.st83{fill:#1B8555;}
	.st84{fill:#3B434F;}
	.st85{fill:#73DEEF;}
	.st86{fill:#DCA0FF;}
	.st87{fill:#D78DFF;}
	.st88{fill:#DC92FF;}
	.st89{fill:#73D0E4;}
	.st90{fill:#726097;}
	.st91{fill:#C8CACC;}
	.st92{fill:#9D9EA1;}
	.st93{fill:#474747;}
	.st94{fill:#DBDBDB;}
	.st95{fill:#282829;}
	.st96{fill:#F7FFE0;}
	.st97{fill:#C862D4;}
	.st98{fill:#C8CFB5;}
	.st99{fill:#793B80;}
	.st100{fill:#46385E;}
	.st101{fill:#FFE9BC;}
	.st102{fill:#4C4450;}
	.st103{fill:#363038;}
	.st104{fill:#1E232B;}
	.st105{fill:#FFBFC2;}
	.st106{fill:#AB0F19;}
	.st107{fill:#99D96F;}
	.st108{fill:#80B55C;}
	.st109{fill:#E3E3E3;}
	.st110{fill:#89C263;}
	.st111{fill:#68944B;}
	.st112{fill:#4D594D;}
	.st113{fill:#E0AFA9;}
	.st114{fill:#FFC7C0;}
	.st115{fill:#78584B;}
	.st116{fill:#FD244B;}
	.st117{fill:#D4D4D4;}
	.st118{fill:#8C6758;}
	.st119{fill:#453F3D;}
	.st120{fill:#523D34;}
	.st121{fill:#519E6C;}
	.st122{fill:#E83651;}
	.st123{fill:#ACBF6B;}
	.st124{fill:#3C7550;}
	.st125{fill:#91A352;}
	.st126{fill:#AD293D;}
	.st127{fill:#E8E8E8;}
	.st128{fill:#4D393C;}
	.st129{fill:#ABABAB;}
	.st130{fill:#E16512;}
	.st131{fill:#808080;}
	.st132{fill:#A09AF0;}
	.st133{fill:#49494A;}
	.st134{fill:#414142;}
	.st135{fill:#6B63CF;}
	.st136{fill:#7E77DB;}
	.st137{fill:#3B3B3B;}
	.st138{fill:#2A2A2B;}
	.st139{fill:#AEE826;}
	.st140{fill:#C9CBCC;}
	.st141{fill:#CCCCCC;}
	.st142{fill:#EF3934;}
	.st143{fill:#9EA0A1;}
	.st144{fill:#BF2E2A;}
	.st145{fill:#43454F;}
	.st146{fill:#48AB58;}
	.st147{fill:#2BDFFF;}
	.st148{fill:#51C264;}
	.st149{fill:#6FDE81;}
</style>
<g>
	<g>
		<rect x="76" y="59" class="st140" width="16" height="11"/>
	</g>
	<g>
		<rect x="36" y="88" class="st140" width="11" height="16"/>
	</g>
	<g>
		<rect x="2" y="48" class="st141" width="16" height="11"/>
	</g>
	<g>
		<rect x="47" y="14" class="st140" width="11" height="16"/>
	</g>
	<g>
		<path class="st8" d="M57,130v18H37v-18c0-5.52,4.48-10,10-10S57,124.48,57,130z"/>
	</g>
	<g>
		<path class="st140" d="M18,148l3.51-35h51.98L77,148H57v-18c0-5.52-4.48-10-10-10s-10,4.48-10,10v18H18z"/>
	</g>
	<g>
		<path class="st142" d="M61.21,43.29c3.63,3.29,6.09,7.89,6.6,13.12L68.07,59H52c0-2.76-2.24-5-5-5V38.01
			C47.17,38,47.33,38,47.5,38C52.75,38,57.57,39.99,61.21,43.29z"/>
	</g>
	<g>
		<path class="st142" d="M47,38.01V54c-2.76,0-5,2.24-5,5H26.93l0.26-2.59C28.2,46.13,36.72,38.25,47,38.01z"/>
	</g>
	<g>
		<path class="st14" d="M47,88H36v16h11V88z M47,64c2.76,0,5-2.24,5-5h16.07l5.42,54H21.51l5.42-54H42C42,61.76,44.24,64,47,64z"/>
	</g>
	<g>
		<g>
			<polygon class="st143" points="21.51,113 18,148 31,148 34.51,113 			"/>
		</g>
	</g>
	<g>
		<path class="st144" d="M47,43.122V38.01c-10.28,0.24-18.8,8.12-19.81,18.4L26.93,59h13l0.26-2.59
			C40.712,51.093,43.255,46.429,47,43.122z"/>
	</g>
	<g>
		<g>
			<polygon class="st141" points="36,88 37.019,88 39.93,59 26.93,59 21.51,113 34.51,113 36,98.155 			"/>
		</g>
	</g>
	<circle class="st14" cx="47" cy="59" r="5"/>
	<g>
		<path class="st145" d="M92,57H76h-6.121l-0.079-0.784c-0.541-5.545-3.115-10.662-7.247-14.408
			c-3.759-3.407-8.526-5.403-13.554-5.739V32h9c1.104,0,2-0.896,2-2V14c0-1.104-0.896-2-2-2H47c-1.104,0-2,0.896-2,2v16v6.147
			c-10.404,1.155-18.759,9.469-19.8,20.063L25.121,57H20v-9c0-1.104-0.896-2-2-2H2c-1.104,0-2,0.896-2,2v11c0,1.104,0.896,2,2,2h16
			h6.719l-5.017,50H16c-1.104,0-2,0.896-2,2s0.896,2,2,2h3.301l-3.111,31H8c-1.104,0-2,0.896-2,2s0.896,2,2,2h78
			c1.104,0,2-0.896,2-2s-0.896-2-2-2h-7.19l-3.11-31H78c1.104,0,2-0.896,2-2s-0.896-2-2-2h-2.702l-5.017-50H74v9
			c0,1.104,0.896,2,2,2h16c1.104,0,2-0.896,2-2V59C94,57.896,93.104,57,92,57z M16,57H4v-7h12V57z M59.867,44.772
			c0.432,0.391,0.842,0.802,1.231,1.228H57c-1.104,0-2,0.896-2,2s0.896,2,2,2h6.874c1.049,2.042,1.719,4.278,1.947,6.61L65.859,57
			H53.705c-0.673-2.253-2.452-4.032-4.705-4.705V40.069C53.032,40.397,56.845,42.033,59.867,44.772z M47,62c-1.654,0-3-1.346-3-3
			s1.346-3,3-3s3,1.346,3,3S48.654,62,47,62z M49,16h7v12h-7V16z M29.181,56.605C30.019,48.07,36.635,41.346,45,40.19v12.105
			c-2.253,0.674-4.032,2.452-4.705,4.705H29.141L29.181,56.605z M55,146H39v-16c0-4.411,3.589-8,8-8s8,3.589,8,8V146z M73.585,134
			H70c-1.104,0-2,0.896-2,2s0.896,2,2,2h3.986l0.803,8H59v-16c0-6.617-5.383-12-12-12s-12,5.383-12,12v16H20.211l1.405-14H27
			c1.104,0,2-0.896,2-2s-0.896-2-2-2h-4.983l1.304-13h48.357L73.585,134z M69.873,97H61c-1.104,0-2,0.896-2,2s0.896,2,2,2h9.274
			l1.003,10H23.723l3.612-36H33c1.104,0,2-0.896,2-2s-0.896-2-2-2h-5.264l1.003-10h11.555c0.673,2.253,2.452,4.032,4.705,4.705V86
			h-9c-1.104,0-2,0.896-2,2v16c0,1.104,0.896,2,2,2h11c1.104,0,2-0.896,2-2V88V65.705c2.253-0.674,4.032-2.452,4.705-4.705h12.556
			L69.873,97z M45,90v12h-7V90H45z M90,68H78v-7h12V68z"/>
		<path class="st145" d="M56,93h7c1.104,0,2-0.896,2-2s-0.896-2-2-2h-7c-1.104,0-2,0.896-2,2S54.895,93,56,93z"/>
	</g>
</g>
</svg>
