<?xml version="1.0" encoding="utf-8"?>
<!-- Generator: Adobe Illustrator 21.0.0, SVG Export Plug-In . SVG Version: 6.00 Build 0)  -->
<svg version="1.1" id="Layer_1" xmlns="http://www.w3.org/2000/svg" xmlns:xlink="http://www.w3.org/1999/xlink" x="0px" y="0px"
	 viewBox="0 0 129 150" style="enable-background:new 0 0 129 150;" xml:space="preserve">
<style type="text/css">
	.st0{fill:#FFFFFF;}
	.st1{fill:#6D6E71;}
	.st2{fill:#5A5B5E;}
	.st3{fill:#AEB0B1;}
	.st4{fill:#FFFFFF;stroke:#58595B;stroke-width:4;stroke-linecap:round;stroke-linejoin:round;stroke-miterlimit:10;}
	.st5{fill:#58595B;}
	.st6{fill:#A8724B;}
	.st7{fill:#916341;}
	.st8{fill:#754921;}
	.st9{fill:#FF6B6B;}
	.st10{fill:#FFD57E;}
	.st11{fill:#D9FF93;}
	.st12{fill:#E8E8E8;}
	.st13{fill:#85808A;}
	.st14{fill:#1787FF;}
	.st15{fill:#4DE69F;}
	.st16{fill:#C92A2A;}
	.st17{fill:#00386E;}
	.st18{fill:#231F20;}
	.st19{fill:#CCCCCC;}
	.st20{fill:#A12222;}
	.st21{fill:#002D58;}
	.st22{fill:#1C191A;}
</style>
<g>
	<path class="st9" d="M16,142H8V80c0-24.262,19.738-44,44-44s44,19.738,44,44v25h-8V80c0-19.851-16.149-36-36-36S16,60.149,16,80
		V142z"/>
</g>
<g>
	<path class="st10" d="M24,142.161h-8V80c0-19.851,16.149-36,36-36s36,16.149,36,36v25.161h-8V80c0-15.439-12.561-28-28-28
		S24,64.561,24,80V142.161z"/>
</g>
<g>
	<path class="st11" d="M32,142.161h-8V79c0-15.439,12.561-28,28-28s28,12.561,28,28v26.161h-8V79c0-11.028-8.972-20-20-20
		s-20,8.972-20,20V142.161z"/>
</g>
<g>
	<path class="st5" d="M103.5,127c-1.104,0-2-0.896-2-2s0.896-2,2-2c7.444,0,13.5-6.056,13.5-13.5S110.944,96,103.5,96
		c-1.104,0-2-0.896-2-2s0.896-2,2-2c9.649,0,17.5,7.851,17.5,17.5S113.149,127,103.5,127z"/>
</g>
<g>
	<g>
		<path class="st0" d="M63.02,103.04C63.27,93.58,70.99,86,80.5,86c6.91,0,12.86,4.01,15.71,9.82c2.17-1.16,4.65-1.82,7.29-1.82
			c8.56,0,15.5,6.94,15.5,15.5c0,8.39-6.67,15.21-15,15.47V125H64c-6.08,0-11-4.92-11-11c0-5.75,4.41-10.46,10.02-10.95V103.04z"/>
	</g>
</g>
<g>
	<g>
		<path class="st12" d="M77.5,93c6.91,0,12.86,4.01,15.71,9.82c2.17-1.16,4.65-1.82,7.29-1.82c8.56,0,15.5,6.94,15.5,15.5
			c0,0.822-0.082,1.624-0.205,2.411c3.908-5.086,4.762-12.641-0.387-19.986c-0.411-0.586-0.931-1.099-1.524-1.501
			c-6.322-4.293-12.785-4.218-17.674-1.604C93.36,90.01,87.41,86,80.5,86c-8.553,0-15.639,6.138-17.164,14.254
			C66.511,95.862,71.664,93,77.5,93z"/>
	</g>
</g>
<g>
	<g>
		<path class="st13" d="M104,127H64c-7.168,0-13-5.832-13-13c0-6.093,4.333-11.36,10.139-12.676C62.239,91.457,70.437,84,80.5,84
			c6.832,0,13.015,3.49,16.56,9.227C99.1,92.421,101.293,92,103.5,92c9.649,0,17.5,7.851,17.5,17.5
			c0,9.379-7.253,16.979-16.578,17.454C104.286,126.984,104.145,127,104,127z M80.5,88c-8.457,0-15.257,6.63-15.48,15.093
			c-0.027,1.017-0.812,1.861-1.825,1.949C58.599,105.443,55,109.379,55,114c0,4.963,4.038,9,9,9h39.656
			c0.092-0.017,0.186-0.026,0.282-0.029C111.263,122.742,117,116.825,117,109.5c0-7.444-6.056-13.5-13.5-13.5
			c-2.246,0-4.381,0.533-6.347,1.584c-0.478,0.255-1.042,0.306-1.557,0.14c-0.516-0.166-0.943-0.535-1.182-1.022
			C91.782,91.334,86.45,88,80.5,88z"/>
	</g>
</g>
<g>
	<path class="st0" d="M52,36c24.262,0,44,19.738,44,44v11.697c0.372,0.492,0.731,0.998,1.06,1.53C99.1,92.421,101.293,92,103.5,92
		c9.649,0,17.5,7.851,17.5,17.5c0,0.602-0.032,1.195-0.09,1.781c-0.003,0.028-0.009,0.056-0.012,0.084
		c-0.611,5.853-4.073,10.811-9.006,13.485c-0.057,0.031-0.115,0.059-0.172,0.09c-0.393,0.208-0.793,0.403-1.204,0.581
		c-0.193,0.085-0.39,0.162-0.587,0.24c-0.276,0.108-0.553,0.213-0.837,0.307c-0.33,0.112-0.665,0.209-1.003,0.301
		c-0.159,0.042-0.317,0.085-0.478,0.123c-0.448,0.109-0.903,0.197-1.364,0.27c-0.063,0.01-0.126,0.02-0.19,0.029
		c-0.533,0.079-1.073,0.132-1.62,0.161c-0.006,0-0.011,0.001-0.017,0.002c-0.136,0.03-0.277,0.046-0.422,0.046H64
		c-7.168,0-13-5.832-13-13c0-0.411,0.023-0.818,0.062-1.221c0.017-0.184,0.048-0.364,0.073-0.546
		c0.028-0.204,0.055-0.407,0.093-0.608c0.046-0.246,0.103-0.486,0.162-0.727c0.029-0.117,0.058-0.234,0.09-0.35
		c0.081-0.292,0.172-0.579,0.272-0.863c0.013-0.038,0.027-0.075,0.041-0.112c0.84-2.308,2.309-4.31,4.207-5.799V79
		c0-2.206-1.794-4-4-4s-4,1.794-4,4v63.111h-8v0.05h-8h-8h-8V142H8V80C8,55.738,27.738,36,52,36 M52,28C23.327,28,0,51.327,0,80v62
		c0,4.418,3.582,8,8,8h6.395c0.519,0.106,1.056,0.161,1.605,0.161h8h8h8c0.303,0,0.603-0.017,0.898-0.05H48c4.418,0,8-3.582,8-8
		v-8.695c2.467,1.02,5.169,1.583,8,1.583h40c0.439,0,0.877-0.029,1.311-0.087c0.645-0.046,1.288-0.115,1.915-0.208l0.215-0.033
		c0.007-0.001,0.056-0.009,0.062-0.01c0.686-0.109,1.356-0.242,1.991-0.396c0.186-0.044,0.407-0.102,0.629-0.161
		c0.013-0.003,0.058-0.015,0.07-0.019c0.553-0.151,1.018-0.291,1.464-0.442c0.426-0.141,0.838-0.298,1.179-0.432l0.115-0.045
		c0.264-0.104,0.526-0.21,0.785-0.324c0.536-0.232,1.111-0.509,1.717-0.828c0.105-0.054,0.198-0.103,0.29-0.153
		c7.275-3.944,12.173-11.23,13.094-19.494c0.012-0.088,0.023-0.177,0.032-0.266c0.089-0.892,0.132-1.758,0.132-2.602
		c0-13.893-11.17-25.227-25-25.495V80C104,51.327,80.673,28,52,28L52,28z"/>
</g>
<path class="st14" d="M56,79v27.466c2.006-2.129,4.844-3.466,8-3.466V79c0-6.617-5.383-12-12-12s-12,5.383-12,12v63.111h8V79
	c0-2.206,1.794-4,4-4S56,76.794,56,79z"/>
<path class="st15" d="M64,79v24c2.448,0,4.701,0.809,6.528,2.161H72V79c0-11.028-8.972-20-20-20s-20,8.972-20,20v63.161h8V79
	c0-6.617,5.383-12,12-12S64,72.383,64,79z"/>
<g>
	<path class="st13" d="M75,116c-1.104,0-2-0.896-2-2c0-4.963-4.038-9-9-9s-9,4.037-9,9c0,1.104-0.896,2-2,2s-2-0.896-2-2
		c0-7.168,5.832-13,13-13s13,5.832,13,13C77,115.104,76.104,116,75,116z"/>
</g>
</svg>
